{"title":"Abraham Lincoln Vampire Hunter 2012 CAM NEW SOURCE XViD UNiQUE","uid":7454557,"size":1135187988,"categoryP":"video","categoryS":"movies","magnet":"?xt=urn:btih:8a1f45a4a3fe1e5826dced5784a2250dc6a9a1c0&amp;dn=Abraham+Lincoln+Vampire+Hunter+2012+CAM+NEW+SOURCE+XViD+UNiQUE&amp;tr=udp%3A%2F%2Ftracker.openbittorrent.com%3A80&amp;tr=udp%3A%2F%2Fopen.demonii.com%3A1337&amp;tr=udp%3A%2F%2Ftracker.coppersurfer.tk%3A6969&amp;tr=udp%3A%2F%2Fexodus.desync.com%3A6969","seeders":0,"leechers":1,"uploader":"tykoon123","files":-1,"time":1342628652,"description":"Poster: &lt;a href=&quot;\nhttp://imgh.us/Abraham-Lincoln-Vampire-Hunter6_1.jpg&quot; rel=&quot;nofollow&quot; target=&quot;_NEW&quot;&gt;\nhttp://imgh.us/Abraham-Lincoln-Vampire-Hunter6_1.jpg&lt;/a&gt;\n\nInfo:\n\nVideo\nID : 0\nFormat : MPEG-4 Visual\nFormat profile : Advanced Simple@L5\nFormat settings, BVOP : 2\nFormat settings, QPel : No\nFormat settings, GMC : No warppoints\nFormat settings, Matrix : Default (H.263)\nMuxing mode : Packed bitstream\nCodec ID : XVID\nCodec ID/Hint : XviD\nDuration : 1h 37mn\nBit rate : 1 405 Kbps\nWidth : 608 pixels\nHeight : 304 pixels\nDisplay aspect ratio : 2.000\nFrame rate : 25.000 fps\nColor space : YUV\nChroma subsampling : 4:2:0\nBit depth : 8 bits\nScan type : Progressive\nCompression mode : Lossy\nBits/(Pixel*Frame) : 0.304\nStream size : 979 MiB (91%)\nWriting library : XviD 64\n\nAudio\nID : 1\nFormat : MPEG Audio\nFormat version : Version 1\nFormat profile : Layer 3\nMode : Joint stereo\nMode extension : MS Stereo\nCodec ID : 55\nCodec ID/Hint : MP3\nDuration : 1h 37mn\nBit rate mode : Constant\nBit rate : 128 Kbps\nChannel(s) : 2 channels\nSampling rate : 44.1 KHz\nCompression mode : Lossy\nStream size : 89.2 MiB (8%)\nAlignment : Split accross interleaves\nInterleave, duration : 40 ms (1.00 video frame)\nInterleave, preload duration : 500 ms\n\n**********Note******************\nSource Used\nFUTiLE ...........Thanks \n\nSo so cam not great but better than previous \n\nNotes will edit description when can be bothered im too fookin tired lmao \n\n\n\nSCREENS: &lt;a href=&quot;\nhttp://imgh.us/vlcsnap2012071809h10m20.png&quot; rel=&quot;nofollow&quot; target=&quot;_NEW&quot;&gt;\nhttp://imgh.us/vlcsnap2012071809h10m20.png&lt;/a&gt; &lt;a href=&quot;\nhttp://imgh.us/vlcsnap2012071809h10m10.png&quot; rel=&quot;nofollow&quot; target=&quot;_NEW&quot;&gt;\nhttp://imgh.us/vlcsnap2012071809h10m10.png&lt;/a&gt; &lt;a href=&quot;\nhttp://imgh.us/Abraham_Lincoln_Vampire_Hunter_2012_CAM_NEW_SOURCE_XViD_UNiQUE-010.jpg&quot; rel=&quot;nofollow&quot; target=&quot;_NEW&quot;&gt;\nhttp://imgh.us/Abraham_Lincoln_Vampire_Hunter_2012_CAM_NEW_SOURCE_XViD_UNiQUE-010.jpg&lt;/a&gt;\n\n","torrent":{"xt":"urn:btih:8a1f45a4a3fe1e5826dced5784a2250dc6a9a1c0","amp;dn":"Abraham+Lincoln+Vampire+Hunter+2012+CAM+NEW+SOURCE+XViD+UNiQUE","amp;tr":["udp%3A%2F%2Ftracker.openbittorrent.com%3A80","udp%3A%2F%2Fopen.demonii.com%3A1337","udp%3A%2F%2Ftracker.coppersurfer.tk%3A6969","udp%3A%2F%2Fexodus.desync.com%3A6969"],"infoHash":"8a1f45a4a3fe1e5826dced5784a2250dc6a9a1c0","infoHashBuffer":{"type":"Buffer","data":[138,31,69,164,163,254,30,88,38,220,237,87,132,162,37,13,198,169,161,192]},"announce":[],"urlList":[]}}